# xmcd
#
# Track frame offsets: 
#        150
#        17826
#        33973
#        52260
#        66447
#        85952
#        100074
#        115590
#        132313
#        153312
#        173336
#        192626
#        211880
#        230352
#        243657
#        263242
#        283865
#
# Disc length: 4197 seconds
#
# Revision: 0
# Processed by: cddbd v1.5.2PL0 Copyright (c) Steve Scherf et al.
# Submitted via: ExactAudioCopy v0.95b4
#
DISCID=f1106311
DTITLE=Carlos Vives - Fruta Fresca
DYEAR=2000
DGENRE=Latin
TTITLE0=Fruta Fresca
TTITLE1=La Gota Fria
TTITLE2=Tu Amor Eterno
TTITLE3=La Hamaca Grande
TTITLE4=La Piragua
TTITLE5=Pa' Mayte
TTITLE6=El Amor De Mi Tierra
TTITLE7=Ella
TTITLE8=19 De Noviembre
TTITLE9=Amor Sensible
TTITLE10=Volver Al Valle
TTITLE11=Que Diera
TTITLE12=La Mona
TTITLE13=El Testamento - Escalona
TTITLE14=La Tierra Del Olvido
TTITLE15=Fruta Fresca (Remix)
TTITLE16=Megamix - La Gota Fria - Pa' Mayte - Fruta Fresca
EXTD=
EXTT0=
EXTT1=
EXTT2=
EXTT3=
EXTT4=
EXTT5=
EXTT6=
EXTT7=
EXTT8=
EXTT9=
EXTT10=
EXTT11=
EXTT12=
EXTT13=
EXTT14=
EXTT15=
EXTT16=
PLAYORDER=
